<svg version="1.1" id="Layer_1" xmlns="http://www.w3.org/2000/svg" xmlns:xlink="http://www.w3.org/1999/xlink" x="0px" y="0px"
	 width="100%" viewBox="0 0 454 88" enable-background="new 0 0 454 88" xml:space="preserve">
<path fill="#FEFEFE" opacity="1.000000" stroke="none" 
	d="
M338.000000,89.000000 
	C225.333344,89.000000 113.166695,89.000000 1.000030,89.000000 
	C1.000020,59.666683 1.000020,30.333366 1.000010,1.000038 
	C152.333298,1.000025 303.666595,1.000025 454.999939,1.000013 
	C454.999939,30.333296 454.999939,59.666592 454.999969,88.999939 
	C416.166656,89.000000 377.333344,89.000000 338.000000,89.000000 
M61.493797,27.270151 
	C66.160049,27.269506 70.828392,27.356503 75.491982,27.244699 
	C80.626823,27.121601 84.049965,24.124088 83.982681,20.035183 
	C83.911720,15.722690 80.727791,12.971000 75.476540,12.943704 
	C63.977844,12.883932 52.478626,12.923014 40.979618,12.925133 
	C33.480324,12.926514 25.979015,12.830819 18.482494,12.977375 
	C14.012293,13.064768 10.902833,16.067924 11.038417,20.050268 
	C11.187058,24.416088 13.898562,26.582479 18.007053,27.161991 
	C19.316833,27.346739 20.667385,27.265966 21.999302,27.266598 
	C34.831524,27.272665 47.663750,27.270164 61.493797,27.270151 
M21.014400,59.731094 
	C20.515190,59.731567 20.014879,59.710434 19.516941,59.735828 
	C14.167053,60.008644 10.836815,62.999878 11.003379,67.373894 
	C11.159391,71.470795 14.470750,74.006927 19.850246,74.065323 
	C24.009869,74.110474 28.170368,74.074532 32.330479,74.074417 
	C46.807663,74.074020 61.285179,74.130089 75.761871,74.045341 
	C81.588577,74.011246 85.073219,70.045242 83.655792,65.283943 
	C82.437202,61.190578 79.517677,59.675911 75.330154,59.695915 
	C57.525291,59.780949 39.719791,59.731522 21.014400,59.731094 
M122.866699,41.597233 
	C121.255844,39.078289 119.352844,36.695690 118.099380,34.009949 
	C115.968758,29.444727 112.697990,28.962757 108.755859,30.263498 
	C108.755859,39.666088 108.755859,48.738503 108.755859,58.082966 
	C110.834625,57.983841 112.571411,57.901024 114.875412,57.791161 
	C114.875412,51.604927 114.875412,45.803959 114.875412,38.502205 
	C118.490250,44.348087 121.557762,48.672085 123.937996,53.346077 
	C126.103638,57.598705 128.944290,59.149002 133.578003,57.600853 
	C133.578003,48.450207 133.578003,39.258049 133.578003,30.115513 
	C131.545334,30.115513 129.820663,30.115513 127.634201,30.115513 
	C127.634201,36.288219 127.634201,42.130268 127.634201,48.953224 
	C125.764832,46.100979 124.498108,44.168232 122.866699,41.597233 
M227.894424,52.766880 
	C221.335495,53.353783 218.438889,51.984570 216.922363,47.580460 
	C215.418320,43.212509 216.753403,38.127388 219.999344,35.860794 
	C223.743301,33.246437 227.240128,33.954891 232.573410,38.502834 
	C234.012985,37.669113 235.504608,36.805248 237.042282,35.914715 
	C232.004059,29.178772 223.172943,27.298172 216.847824,31.268234 
	C210.444016,35.287689 208.246094,44.568340 212.025208,51.631523 
	C215.803680,58.693478 223.677948,60.194466 232.100800,56.241013 
	C234.509827,57.146908 236.061829,57.730530 237.896774,58.420547 
	C237.896774,52.562866 237.896774,47.669296 237.896774,42.680260 
	C233.486343,42.680260 229.384918,42.680260 224.961670,42.680260 
	C225.064407,44.325806 225.151337,45.718163 225.250549,47.307148 
	C227.753235,47.307148 229.863358,47.307148 233.675323,47.307148 
	C231.366455,49.617992 229.989532,50.996086 227.894424,52.766880 
M21.788408,50.652298 
	C39.286350,50.652229 56.784382,50.683765 74.282188,50.635468 
	C80.670074,50.617836 84.155373,47.844681 83.998268,43.163170 
	C83.850784,38.768360 80.503311,36.451744 74.149063,36.348469 
	C73.815849,36.343056 73.482483,36.347691 73.149185,36.347691 
	C55.984539,36.347691 38.819862,36.333130 21.655289,36.369080 
	C19.836409,36.372890 17.518950,36.033165 16.309618,36.976677 
	C14.177344,38.640255 11.722548,40.966106 11.226584,43.388149 
	C10.556280,46.661591 12.814306,49.381756 16.421862,50.179935 
	C17.870317,50.500408 19.388832,50.504227 21.788408,50.652298 
M266.818939,32.626575 
	C265.540771,31.864031 264.334259,30.926338 262.972107,30.369171 
	C256.980743,27.918547 250.260651,29.387817 246.046356,33.950668 
	C242.332825,37.971340 241.410721,45.826588 244.072327,50.767231 
	C247.249863,56.665638 252.469437,59.179958 259.524658,58.210800 
	C271.158600,56.612671 275.190704,43.717953 266.818939,32.626575 
M329.963226,52.397991 
	C330.612610,53.148117 331.195923,53.970211 331.922119,54.636612 
	C336.396484,58.742592 343.893066,59.665596 349.065735,56.790268 
	C354.246887,53.910229 357.038635,47.565048 356.037262,40.945316 
	C355.171997,35.225590 350.563995,30.579433 344.480835,29.493389 
	C338.983765,28.511986 334.103546,30.023018 330.704987,34.432755 
	C326.570496,39.797306 326.538300,45.748714 329.963226,52.397991 
M141.483047,58.015823 
	C143.446716,56.242825 145.410400,54.469826 147.935699,52.189739 
	C149.804703,52.189739 152.640274,52.033936 155.443283,52.268147 
	C156.530075,52.358959 158.325394,53.186871 158.462463,53.926487 
	C159.329514,58.605228 162.316315,58.554737 166.114471,57.634682 
	C163.432785,50.470875 160.368118,43.475609 158.239594,36.206238 
	C156.649048,30.774179 154.215271,28.228769 148.226944,30.334763 
	C144.928024,39.262703 141.541611,48.427399 138.056931,57.858063 
	C139.357300,57.936520 140.012741,57.976067 141.483047,58.015823 
M421.524231,29.809042 
	C420.102875,29.809042 418.681519,29.809042 417.317322,29.809042 
	C417.317322,39.547115 417.317322,48.727062 417.317322,58.016949 
	C420.297638,58.016949 422.945709,57.948124 425.588989,58.031208 
	C431.171326,58.206676 435.833008,56.494694 438.345734,51.218365 
	C440.835815,45.989758 440.804443,40.672764 437.844604,35.507805 
	C434.297577,29.318140 428.313507,29.807409 421.524231,29.809042 
M172.978516,29.899368 
	C171.260208,29.899368 169.541901,29.899368 167.255966,29.899368 
	C170.660004,39.000160 173.702499,47.407879 177.031754,55.700481 
	C177.463730,56.776440 179.376694,57.862453 180.601120,57.859615 
	C182.067917,57.856220 184.420303,57.047337 184.856369,55.968006 
	C188.263931,47.534031 191.303223,38.951271 194.588013,30.057556 
	C192.227631,30.057556 190.307175,30.057556 188.422577,30.057556 
	C186.017471,36.754314 183.676102,43.273563 180.914352,50.963318 
	C178.188919,43.131065 175.957962,36.719833 172.978516,29.899368 
M406.120300,49.293480 
	C405.344055,48.031219 404.567841,46.768959 403.791321,45.506233 
	C409.178802,42.248360 410.401031,39.783360 408.999146,35.070068 
	C407.553345,30.209208 403.658661,29.759275 399.479828,29.803192 
	C396.728149,29.832109 393.975922,29.808657 391.148743,29.808657 
	C391.148743,39.457699 391.148743,48.530464 391.148743,57.784492 
	C392.697113,57.784492 394.076782,57.784492 395.925049,57.784492 
	C395.925049,53.500774 395.925049,49.434235 395.925049,43.834778 
	C398.004303,45.744514 399.274689,46.551434 400.044373,47.695271 
	C401.518250,49.885582 402.916443,52.176723 403.964386,54.591637 
	C405.422516,57.951923 407.672516,58.813255 411.380859,57.492191 
	C409.703125,54.876034 408.114441,52.398746 406.120300,49.293480 
M321.212311,38.873745 
	C322.524475,31.523846 317.127594,28.208447 304.059143,30.447454 
	C304.059143,39.521595 304.059143,48.595734 304.059143,58.010212 
	C307.253784,58.010212 310.221466,57.936356 313.184021,58.027821 
	C317.442810,58.159302 321.437988,57.469292 322.949799,52.909786 
	C324.345154,48.701504 323.227722,45.007927 318.691254,43.269260 
	C319.696259,41.734802 320.393524,40.670231 321.212311,38.873745 
M381.483459,45.904060 
	C379.480621,40.523277 377.477783,35.142494 375.163086,28.923855 
	C372.841553,29.915594 369.769104,30.252481 369.187988,31.635870 
	C365.616119,40.139133 362.607239,48.878880 359.426392,57.498215 
	C365.607483,60.042057 364.721527,54.160557 366.632141,51.865250 
	C369.159943,51.865250 371.493988,52.006599 373.803925,51.831161 
	C377.037781,51.585552 379.392609,51.977909 380.361938,55.871101 
	C380.663544,57.082504 383.485535,57.666389 385.153748,58.537544 
	C385.350311,58.143391 385.546906,57.749233 385.743469,57.355076 
	C384.434875,53.772369 383.126251,50.189659 381.483459,45.904060 
M198.982422,36.563068 
	C198.982422,43.675388 198.982422,50.787712 198.982422,57.824860 
	C201.156082,57.824860 202.775116,57.824860 204.521210,57.824860 
	C204.521210,48.424095 204.521210,39.218670 204.521210,29.997377 
	C202.573502,29.997377 200.966110,29.997377 198.982422,29.997377 
	C198.982422,31.981384 198.982422,33.783058 198.982422,36.563068 
M292.144318,49.274609 
	C296.528442,49.131470 296.528442,49.131470 296.002838,45.516613 
	C281.954193,44.815533 281.954193,44.815533 282.839050,49.274548 
	C285.619629,49.274548 288.439728,49.274548 292.144318,49.274609 
z"/>
<path fill="#282828" opacity="1.000000" stroke="none" 
	d="
M60.994884,27.270134 
	C47.663750,27.270164 34.831524,27.272665 21.999302,27.266598 
	C20.667385,27.265966 19.316833,27.346739 18.007053,27.161991 
	C13.898562,26.582479 11.187058,24.416088 11.038417,20.050268 
	C10.902833,16.067924 14.012293,13.064768 18.482494,12.977375 
	C25.979015,12.830819 33.480324,12.926514 40.979618,12.925133 
	C52.478626,12.923014 63.977844,12.883932 75.476540,12.943704 
	C80.727791,12.971000 83.911720,15.722690 83.982681,20.035183 
	C84.049965,24.124088 80.626823,27.121601 75.491982,27.244699 
	C70.828392,27.356503 66.160049,27.269506 60.994884,27.270134 
M74.255417,24.338871 
	C77.462639,24.284090 81.181091,24.554474 80.943291,19.866539 
	C80.717232,15.410087 77.081154,15.650566 73.856804,15.658044 
	C68.866173,15.669617 63.875484,15.660938 58.884823,15.661040 
	C45.909100,15.661308 32.933167,15.619982 19.957756,15.683932 
	C15.219963,15.707283 12.295921,18.934315 14.455357,21.860661 
	C15.548859,23.342514 18.358313,24.213852 20.403496,24.234791 
	C38.035324,24.415308 55.669788,24.338852 74.255417,24.338871 
z"/>
<path fill="#272727" opacity="1.000000" stroke="none" 
	d="
M21.464460,59.731148 
	C39.719791,59.731522 57.525291,59.780949 75.330154,59.695915 
	C79.517677,59.675911 82.437202,61.190578 83.655792,65.283943 
	C85.073219,70.045242 81.588577,74.011246 75.761871,74.045341 
	C61.285179,74.130089 46.807663,74.074020 32.330479,74.074417 
	C28.170368,74.074532 24.009869,74.110474 19.850246,74.065323 
	C14.470750,74.006927 11.159391,71.470795 11.003379,67.373894 
	C10.836815,62.999878 14.167053,60.008644 19.516941,59.735828 
	C20.014879,59.710434 20.515190,59.731567 21.464460,59.731148 
M53.500114,62.659866 
	C42.193783,62.661064 30.887449,62.660751 19.581116,62.664509 
	C16.706223,62.665462 14.085829,63.173172 13.979769,66.781693 
	C13.875273,70.336975 16.412746,71.288460 19.284836,71.297821 
	C38.073036,71.359039 56.861618,71.357590 75.649841,71.300377 
	C78.513588,71.291656 81.072083,70.385590 81.004509,66.832092 
	C80.935989,63.228741 78.340248,62.667648 75.450050,62.665245 
	C68.466736,62.659435 61.483425,62.661140 53.500114,62.659866 
z"/>
<path fill="#141414" opacity="1.000000" stroke="none" 
	d="
M123.049042,41.916359 
	C124.498108,44.168232 125.764832,46.100979 127.634201,48.953224 
	C127.634201,42.130268 127.634201,36.288219 127.634201,30.115513 
	C129.820663,30.115513 131.545334,30.115513 133.578003,30.115513 
	C133.578003,39.258049 133.578003,48.450207 133.578003,57.600853 
	C128.944290,59.149002 126.103638,57.598705 123.937996,53.346077 
	C121.557762,48.672085 118.490250,44.348087 114.875412,38.502205 
	C114.875412,45.803959 114.875412,51.604927 114.875412,57.791161 
	C112.571411,57.901024 110.834625,57.983841 108.755859,58.082966 
	C108.755859,48.738503 108.755859,39.666088 108.755859,30.263498 
	C112.697990,28.962757 115.968758,29.444727 118.099380,34.009949 
	C119.352844,36.695690 121.255844,39.078289 123.049042,41.916359 
z"/>
<path fill="#0F0F0F" opacity="1.000000" stroke="none" 
	d="
M228.253525,52.570530 
	C229.989532,50.996086 231.366455,49.617992 233.675323,47.307148 
	C229.863358,47.307148 227.753235,47.307148 225.250549,47.307148 
	C225.151337,45.718163 225.064407,44.325806 224.961670,42.680260 
	C229.384918,42.680260 233.486343,42.680260 237.896774,42.680260 
	C237.896774,47.669296 237.896774,52.562866 237.896774,58.420547 
	C236.061829,57.730530 234.509827,57.146908 232.100800,56.241013 
	C223.677948,60.194466 215.803680,58.693478 212.025208,51.631523 
	C208.246094,44.568340 210.444016,35.287689 216.847824,31.268234 
	C223.172943,27.298172 232.004059,29.178772 237.042282,35.914715 
	C235.504608,36.805248 234.012985,37.669113 232.573410,38.502834 
	C227.240128,33.954891 223.743301,33.246437 219.999344,35.860794 
	C216.753403,38.127388 215.418320,43.212509 216.922363,47.580460 
	C218.438889,51.984570 221.335495,53.353783 228.253525,52.570530 
z"/>
<path fill="#262626" opacity="1.000000" stroke="none" 
	d="
M21.331934,50.652233 
	C19.388832,50.504227 17.870317,50.500408 16.421862,50.179935 
	C12.814306,49.381756 10.556280,46.661591 11.226584,43.388149 
	C11.722548,40.966106 14.177344,38.640255 16.309618,36.976677 
	C17.518950,36.033165 19.836409,36.372890 21.655289,36.369080 
	C38.819862,36.333130 55.984539,36.347691 73.149185,36.347691 
	C73.482483,36.347691 73.815849,36.343056 74.149063,36.348469 
	C80.503311,36.451744 83.850784,38.768360 83.998268,43.163170 
	C84.155373,47.844681 80.670074,50.617836 74.282188,50.635468 
	C56.784382,50.683765 39.286350,50.652229 21.331934,50.652233 
M62.494926,47.926582 
	C66.486702,47.926563 70.478951,47.888573 74.470100,47.938625 
	C77.625656,47.978199 80.860580,47.902500 80.988243,43.715019 
	C81.125961,39.197849 77.782265,39.051167 74.402954,39.057537 
	C56.440041,39.091393 38.477009,39.087280 20.514067,39.060467 
	C17.359158,39.055759 14.128404,39.104134 13.996145,43.290390 
	C13.852900,47.824417 17.210966,47.950260 20.581135,47.941406 
	C34.219601,47.905594 47.858215,47.926567 62.494926,47.926582 
z"/>
<path fill="#0A0A0A" opacity="1.000000" stroke="none" 
	d="
M267.094055,32.875256 
	C275.190704,43.717953 271.158600,56.612671 259.524658,58.210800 
	C252.469437,59.179958 247.249863,56.665638 244.072327,50.767231 
	C241.410721,45.826588 242.332825,37.971340 246.046356,33.950668 
	C250.260651,29.387817 256.980743,27.918547 262.972107,30.369171 
	C264.334259,30.926338 265.540771,31.864031 267.094055,32.875256 
M262.416290,51.044498 
	C265.877747,48.060329 266.530975,44.081455 264.798096,40.320549 
	C263.788147,38.128643 261.235779,35.931080 258.922119,35.222481 
	C255.364075,34.132759 251.535782,34.808559 249.738647,38.932781 
	C247.986847,42.953041 247.802811,47.103767 250.992432,50.458458 
	C254.101624,53.728588 257.911652,53.866444 262.416290,51.044498 
z"/>
<path fill="#0E0E0E" opacity="1.000000" stroke="none" 
	d="
M329.790405,52.066017 
	C326.538300,45.748714 326.570496,39.797306 330.704987,34.432755 
	C334.103546,30.023018 338.983765,28.511986 344.480835,29.493389 
	C350.563995,30.579433 355.171997,35.225590 356.037262,40.945316 
	C357.038635,47.565048 354.246887,53.910229 349.065735,56.790268 
	C343.893066,59.665596 336.396484,58.742592 331.922119,54.636612 
	C331.195923,53.970211 330.612610,53.148117 329.790405,52.066017 
M336.500824,52.159233 
	C337.405762,52.562443 338.286072,53.037701 339.219879,53.356327 
	C343.161194,54.701195 346.527679,53.508217 349.101929,50.508499 
	C352.140381,46.967785 351.852142,42.770309 350.239685,38.770012 
	C348.772064,35.129002 345.628967,33.893002 341.798370,33.878460 
	C337.869843,33.863552 334.913849,35.460148 333.429962,39.007454 
	C331.477936,43.673874 331.996735,48.106956 336.500824,52.159233 
z"/>
<path fill="#0A0A0A" opacity="1.000000" stroke="none" 
	d="
M141.075623,58.015717 
	C140.012741,57.976067 139.357300,57.936520 138.056931,57.858063 
	C141.541611,48.427399 144.928024,39.262703 148.226944,30.334763 
	C154.215271,28.228769 156.649048,30.774179 158.239594,36.206238 
	C160.368118,43.475609 163.432785,50.470875 166.114471,57.634682 
	C162.316315,58.554737 159.329514,58.605228 158.462463,53.926487 
	C158.325394,53.186871 156.530075,52.358959 155.443283,52.268147 
	C152.640274,52.033936 149.804703,52.189739 147.935699,52.189739 
	C145.410400,54.469826 143.446716,56.242825 141.075623,58.015717 
M155.835144,45.961105 
	C154.701721,42.821369 153.568283,39.681629 152.040009,35.448116 
	C151.008270,38.240490 150.400345,39.858776 149.812439,41.484303 
	C149.179291,43.234974 148.564911,44.992432 147.730072,47.345100 
	C150.937500,47.128571 153.350174,46.965691 155.835144,45.961105 
z"/>
<path fill="#0A0A0A" opacity="1.000000" stroke="none" 
	d="
M422.007690,29.809038 
	C428.313507,29.807409 434.297577,29.318140 437.844604,35.507805 
	C440.804443,40.672764 440.835815,45.989758 438.345734,51.218365 
	C435.833008,56.494694 431.171326,58.206676 425.588989,58.031208 
	C422.945709,57.948124 420.297638,58.016949 417.317322,58.016949 
	C417.317322,48.727062 417.317322,39.547115 417.317322,29.809042 
	C418.681519,29.809042 420.102875,29.809042 422.007690,29.809038 
M425.198395,53.821930 
	C432.988800,52.718193 435.755219,49.306313 434.828949,41.944435 
	C434.000244,35.357792 430.546692,33.319817 421.844025,34.523560 
	C421.844025,40.063305 421.735626,45.659702 421.955017,51.243225 
	C421.989960,52.132309 423.497437,52.963535 425.198395,53.821930 
z"/>
<path fill="#090909" opacity="1.000000" stroke="none" 
	d="
M173.352753,30.103985 
	C175.957962,36.719833 178.188919,43.131065 180.914352,50.963318 
	C183.676102,43.273563 186.017471,36.754314 188.422577,30.057556 
	C190.307175,30.057556 192.227631,30.057556 194.588013,30.057556 
	C191.303223,38.951271 188.263931,47.534031 184.856369,55.968006 
	C184.420303,57.047337 182.067917,57.856220 180.601120,57.859615 
	C179.376694,57.862453 177.463730,56.776440 177.031754,55.700481 
	C173.702499,47.407879 170.660004,39.000160 167.255966,29.899368 
	C169.541901,29.899368 171.260208,29.899368 173.352753,30.103985 
z"/>
<path fill="#0B0B0B" opacity="1.000000" stroke="none" 
	d="
M406.323029,49.607471 
	C408.114441,52.398746 409.703125,54.876034 411.380859,57.492191 
	C407.672516,58.813255 405.422516,57.951923 403.964386,54.591637 
	C402.916443,52.176723 401.518250,49.885582 400.044373,47.695271 
	C399.274689,46.551434 398.004303,45.744514 395.925049,43.834778 
	C395.925049,49.434235 395.925049,53.500774 395.925049,57.784492 
	C394.076782,57.784492 392.697113,57.784492 391.148743,57.784492 
	C391.148743,48.530464 391.148743,39.457699 391.148743,29.808657 
	C393.975922,29.808657 396.728149,29.832109 399.479828,29.803192 
	C403.658661,29.759275 407.553345,30.209208 408.999146,35.070068 
	C410.401031,39.783360 409.178802,42.248360 403.791321,45.506233 
	C404.567841,46.768959 405.344055,48.031219 406.323029,49.607471 
M403.238007,40.956474 
	C403.622253,39.222992 404.717010,36.217224 404.271973,35.968700 
	C401.913025,34.651356 399.167236,34.026714 396.220886,33.051292 
	C396.220886,36.728596 396.220886,39.237637 396.220886,42.047215 
	C398.591370,41.771065 400.543396,41.543659 403.238007,40.956474 
z"/>
<path fill="#070707" opacity="1.000000" stroke="none" 
	d="
M321.151550,39.239700 
	C320.393524,40.670231 319.696259,41.734802 318.691254,43.269260 
	C323.227722,45.007927 324.345154,48.701504 322.949799,52.909786 
	C321.437988,57.469292 317.442810,58.159302 313.184021,58.027821 
	C310.221466,57.936356 307.253784,58.010212 304.059143,58.010212 
	C304.059143,48.595734 304.059143,39.521595 304.053772,30.446505 
	C317.127594,28.208447 322.524475,31.523846 321.151550,39.239700 
M318.911133,48.735970 
	C316.573364,43.659176 312.221375,46.003567 308.373596,45.506390 
	C308.373596,48.495075 308.373596,51.069679 308.373596,53.982578 
	C312.537231,53.449203 317.579376,56.074928 318.911133,48.735970 
M312.247223,33.803043 
	C310.977722,33.875210 309.708252,33.947376 308.359253,34.024063 
	C308.359253,36.791855 308.359253,39.214352 308.359253,43.482357 
	C311.843933,41.447502 315.201996,40.524395 316.671722,38.334137 
	C318.118439,36.178173 316.023407,34.066746 312.247223,33.803043 
z"/>
<path fill="#0E0E0E" opacity="1.000000" stroke="none" 
	d="
M381.650574,46.255505 
	C383.126251,50.189659 384.434875,53.772369 385.743469,57.355076 
	C385.546906,57.749233 385.350311,58.143391 385.153748,58.537544 
	C383.485535,57.666389 380.663544,57.082504 380.361938,55.871101 
	C379.392609,51.977909 377.037781,51.585552 373.803925,51.831161 
	C371.493988,52.006599 369.159943,51.865250 366.632141,51.865250 
	C364.721527,54.160557 365.607483,60.042057 359.426392,57.498215 
	C362.607239,48.878880 365.616119,40.139133 369.187988,31.635870 
	C369.769104,30.252481 372.841553,29.915594 375.163086,28.923855 
	C377.477783,35.142494 379.480621,40.523277 381.650574,46.255505 
M372.508972,47.849041 
	C373.919403,47.849041 375.329834,47.849041 377.280731,47.849041 
	C375.601349,43.085419 374.135071,38.926197 372.469330,34.201233 
	C370.811981,39.044434 369.382019,43.223095 367.798981,47.849152 
	C369.423340,47.849152 370.541473,47.849152 372.508972,47.849041 
z"/>
<path fill="#0A0A0A" opacity="1.000000" stroke="none" 
	d="
M198.982422,36.073898 
	C198.982422,33.783058 198.982422,31.981384 198.982422,29.997377 
	C200.966110,29.997377 202.573502,29.997377 204.521210,29.997377 
	C204.521210,39.218670 204.521210,48.424095 204.521210,57.824860 
	C202.775116,57.824860 201.156082,57.824860 198.982422,57.824860 
	C198.982422,50.787712 198.982422,43.675388 198.982422,36.073898 
z"/>
<path fill="#2A2A2A" opacity="1.000000" stroke="none" 
	d="
M291.702057,49.274578 
	C288.439728,49.274548 285.619629,49.274548 282.839050,49.274548 
	C281.954193,44.815533 281.954193,44.815533 296.002838,45.516613 
	C296.528442,49.131470 296.528442,49.131470 291.702057,49.274578 
z"/>
<path fill="#FEFEFE" opacity="1.000000" stroke="none" 
	d="
M73.779442,24.338955 
	C55.669788,24.338852 38.035324,24.415308 20.403496,24.234791 
	C18.358313,24.213852 15.548859,23.342514 14.455357,21.860661 
	C12.295921,18.934315 15.219963,15.707283 19.957756,15.683932 
	C32.933167,15.619982 45.909100,15.661308 58.884823,15.661040 
	C63.875484,15.660938 68.866173,15.669617 73.856804,15.658044 
	C77.081154,15.650566 80.717232,15.410087 80.943291,19.866539 
	C81.181091,24.554474 77.462639,24.284090 73.779442,24.338955 
z"/>
<path fill="#FFFFFF" opacity="1.000000" stroke="none" 
	d="
M54.000114,62.659843 
	C61.483425,62.661140 68.466736,62.659435 75.450050,62.665245 
	C78.340248,62.667648 80.935989,63.228741 81.004509,66.832092 
	C81.072083,70.385590 78.513588,71.291656 75.649841,71.300377 
	C56.861618,71.357590 38.073036,71.359039 19.284836,71.297821 
	C16.412746,71.288460 13.875273,70.336975 13.979769,66.781693 
	C14.085829,63.173172 16.706223,62.665462 19.581116,62.664509 
	C30.887449,62.660751 42.193783,62.661064 54.000114,62.659843 
z"/>
<path fill="#FEFEFE" opacity="1.000000" stroke="none" 
	d="
M61.995850,47.926582 
	C47.858215,47.926567 34.219601,47.905594 20.581135,47.941406 
	C17.210966,47.950260 13.852900,47.824417 13.996145,43.290390 
	C14.128404,39.104134 17.359158,39.055759 20.514067,39.060467 
	C38.477009,39.087280 56.440041,39.091393 74.402954,39.057537 
	C77.782265,39.051167 81.125961,39.197849 80.988243,43.715019 
	C80.860580,47.902500 77.625656,47.978199 74.470100,47.938625 
	C70.478951,47.888573 66.486702,47.926563 61.995850,47.926582 
z"/>
<path fill="#F8F8F8" opacity="1.000000" stroke="none" 
	d="
M262.087952,51.256607 
	C257.911652,53.866444 254.101624,53.728588 250.992432,50.458458 
	C247.802811,47.103767 247.986847,42.953041 249.738647,38.932781 
	C251.535782,34.808559 255.364075,34.132759 258.922119,35.222481 
	C261.235779,35.931080 263.788147,38.128643 264.798096,40.320549 
	C266.530975,44.081455 265.877747,48.060329 262.087952,51.256607 
z"/>
<path fill="#FAFAFA" opacity="1.000000" stroke="none" 
	d="
M336.159241,51.984215 
	C331.996735,48.106956 331.477936,43.673874 333.429962,39.007454 
	C334.913849,35.460148 337.869843,33.863552 341.798370,33.878460 
	C345.628967,33.893002 348.772064,35.129002 350.239685,38.770012 
	C351.852142,42.770309 352.140381,46.967785 349.101929,50.508499 
	C346.527679,53.508217 343.161194,54.701195 339.219879,53.356327 
	C338.286072,53.037701 337.405762,52.562443 336.159241,51.984215 
z"/>
<path fill="#EBEBEB" opacity="1.000000" stroke="none" 
	d="
M155.798981,46.381958 
	C153.350174,46.965691 150.937500,47.128571 147.730072,47.345100 
	C148.564911,44.992432 149.179291,43.234974 149.812439,41.484303 
	C150.400345,39.858776 151.008270,38.240490 152.040009,35.448116 
	C153.568283,39.681629 154.701721,42.821369 155.798981,46.381958 
z"/>
<path fill="#F8F8F8" opacity="1.000000" stroke="none" 
	d="
M424.761261,53.821720 
	C423.497437,52.963535 421.989960,52.132309 421.955017,51.243225 
	C421.735626,45.659702 421.844025,40.063305 421.844025,34.523560 
	C430.546692,33.319817 434.000244,35.357792 434.828949,41.944435 
	C435.755219,49.306313 432.988800,52.718193 424.761261,53.821720 
z"/>
<path fill="#F4F4F4" opacity="1.000000" stroke="none" 
	d="
M402.866699,41.136364 
	C400.543396,41.543659 398.591370,41.771065 396.220886,42.047215 
	C396.220886,39.237637 396.220886,36.728596 396.220886,33.051292 
	C399.167236,34.026714 401.913025,34.651356 404.271973,35.968700 
	C404.717010,36.217224 403.622253,39.222992 402.866699,41.136364 
z"/>
<path fill="#ECECEC" opacity="1.000000" stroke="none" 
	d="
M318.949829,49.133038 
	C317.579376,56.074928 312.537231,53.449203 308.373596,53.982578 
	C308.373596,51.069679 308.373596,48.495075 308.373596,45.506390 
	C312.221375,46.003567 316.573364,43.659176 318.949829,49.133038 
z"/>
<path fill="#EBEBEB" opacity="1.000000" stroke="none" 
	d="
M312.685760,33.832649 
	C316.023407,34.066746 318.118439,36.178173 316.671722,38.334137 
	C315.201996,40.524395 311.843933,41.447502 308.359253,43.482357 
	C308.359253,39.214352 308.359253,36.791855 308.359253,34.024063 
	C309.708252,33.947376 310.977722,33.875210 312.685760,33.832649 
z"/>
<path fill="#EBEBEB" opacity="1.000000" stroke="none" 
	d="
M372.084290,47.849098 
	C370.541473,47.849152 369.423340,47.849152 367.798981,47.849152 
	C369.382019,43.223095 370.811981,39.044434 372.469330,34.201233 
	C374.135071,38.926197 375.601349,43.085419 377.280731,47.849041 
	C375.329834,47.849041 373.919403,47.849041 372.084290,47.849098 
z"/>
</svg>